<svg width="11" height="10" viewBox="0 0 11 10" fill="none" xmlns="http://www.w3.org/2000/svg">
<path d="M1.58826 3.70593C1.83496 3.89302 1.85275 4.3019 2.01133 4.55642C2.05261 4.62267 2.06985 4.69568 2.11767 4.76476" stroke="#FFA500" stroke-width="1.5" stroke-linecap="round"/>
<path d="M3.64062 4.96533C3.76431 4.78456 4.00991 4.6609 4.17184 4.50728C4.25095 4.43222 4.37604 4.38076 4.43903 4.29416C4.47157 4.24941 4.48116 4.19023 4.5281 4.15738C4.65907 4.0657 4.77785 3.99144 4.92571 3.92199C5.03015 3.87293 5.16144 3.8532 5.19291 3.73432C5.20779 3.6781 5.20024 3.44657 5.2613 3.5546C5.35708 3.72406 5.42604 3.89936 5.46646 4.09058C5.49966 4.24761 5.49759 4.38821 5.56984 4.53272C5.63657 4.66618 5.74389 4.7018 5.88475 4.77765C5.94452 4.80984 6.10432 4.73431 6.17581 4.72199C6.32916 4.69555 6.53934 4.67435 6.67521 4.76493" stroke="#FFA500" stroke-width="1.5" stroke-linecap="round"/>
<path d="M8.99999 3.70593C8.87021 4.00967 8.85389 4.3875 8.77896 4.73472C8.75092 4.86465 8.70718 4.99778 8.65418 5.08391C8.57955 5.20517 8.56154 5.23942 8.47058 5.29417" stroke="#FFA500" stroke-width="1.5" stroke-linecap="round"/>
<path d="M1.80884 1.05884C1.80884 0.644624 1.47305 0.308838 1.05884 0.308838C0.644624 0.308838 0.308838 0.644624 0.308838 1.05884H1.80884ZM0.308838 9.00001V9.75001H1.80884V9.00001H0.308838ZM0.308838 1.05884V9.00001H1.80884V1.05884H0.308838Z" fill="#FFA500"/>
<path d="M1.05884 9H9.52943" stroke="#FFA500" stroke-width="1.5" stroke-linecap="square"/>
<path d="M9.52942 9.00001V1.05884" stroke="#FFA500" stroke-width="1.5" stroke-linecap="round"/>
<path d="M1.05884 2.11768L3.17649 4.76473" stroke="#FFA500" stroke-width="1.5" stroke-linecap="round"/>
<circle cx="1.05882" cy="1.05882" r="1.05882" fill="#FFA500"/>
<circle cx="5.29418" cy="1.05882" r="1.05882" fill="#FFA500"/>
<circle cx="9.5294" cy="1.05882" r="1.05882" fill="#FFA500"/>
<path d="M3.17651 4.76473L5.29416 2.11768" stroke="#FFA500" stroke-width="1.5" stroke-linecap="round"/>
<path d="M5.29407 2.11768L7.41171 4.76473" stroke="#FFA500" stroke-width="1.5" stroke-linecap="round"/>
<path d="M7.41174 4.76473L9.52939 2.11768" stroke="#FFA500" stroke-width="1.5" stroke-linecap="round"/>
<rect x="1.05884" y="4.76465" width="8.47059" height="4.23529" fill="#FFA500"/>
</svg>
