<svg width="12" height="22" viewBox="0 0 12 22" fill="none" xmlns="http://www.w3.org/2000/svg">
<path d="M1 1H11" stroke="#FFA500" stroke-width="1.5" stroke-linecap="round"/>
<path d="M1 1V20" stroke="#FFA500" stroke-width="1.5" stroke-linecap="round"/>
<path d="M1 20L6 17" stroke="#FFA500" stroke-width="1.5" stroke-linecap="round"/>
<path d="M6 17L11 20" stroke="#FFA500" stroke-width="1.5" stroke-linecap="round"/>
<path d="M11 20V1" stroke="#FFA500" stroke-width="1.5" stroke-linecap="round"/>
<rect x="1" y="2" width="10" height="16" fill="#FFA500"/>
<path d="M2.85118 17.8037C2.81924 17.8836 2.71508 17.9699 2.7088 18.0516C2.70249 18.1337 2.70911 18.1947 2.66135 18.2678C2.59427 18.3703 2.54786 18.4326 2.52952 18.563C2.49652 18.7977 2.50211 18.6598 2.5717 18.5604C2.86981 18.1345 3.62009 18.2594 4.07456 18.1148C4.09788 18.1074 4.24511 18.0924 4.2143 18.041C4.12521 17.8925 3.70325 18.1809 3.61052 18.2308" stroke="#FFA500" stroke-width="3" stroke-linecap="round"/>
<path d="M8.02417 17.7089C8.41111 17.744 9.13649 17.8256 9.35301 18.2045C9.39631 18.2803 9.49547 18.2444 9.5323 18.3733C9.57621 18.527 9.65173 18.618 9.73268 18.753" stroke="#FFA500" stroke-width="3" stroke-linecap="round"/>
<path d="M1 2H11" stroke="#FFA500" stroke-width="1.5" stroke-linecap="round"/>
<path d="M1 2V21" stroke="#FFA500" stroke-width="1.5" stroke-linecap="round"/>
<path d="M1 21L6 18" stroke="#FFA500" stroke-width="1.5" stroke-linecap="round"/>
<path d="M6 18L11 21" stroke="#FFA500" stroke-width="1.5" stroke-linecap="round"/>
<path d="M11 21V2" stroke="#FFA500" stroke-width="1.5" stroke-linecap="round"/>
</svg>
