<svg width="17" height="18" viewBox="0 0 17 18" fill="none" xmlns="http://www.w3.org/2000/svg">
<g clip-path="url(#clip0_175_448)">
<path d="M16.3636 0H0V18H16.3636V0Z" fill="white"/>
<path d="M4.82929 3.781C4.82929 3.781 11.4889 3.77333 12.8103 3.84661C15.6892 4.00682 16.3636 5.81253 16.3636 5.81253V0H0V18H4.46031C4.46031 18 4.2947 16.9365 4.17371 15.954C4.03127 15.0797 4.09134 12.2164 6.27859 10.7772C8.46584 9.33788 10.9946 9.25352 13.296 9.25352C13.296 9.25352 13.296 6.80869 10.9285 6.80869C8.56109 6.80869 4.84902 6.80869 4.84902 6.80869L4.82929 3.781Z" fill="#FFD17F"/>
<path d="M13.9293 12.127C13.9293 12.127 9.01073 11.2774 8.38004 13.8577C7.78196 16.3025 10.0653 17.337 12.3573 16.6042C14.6492 15.8696 13.9293 12.127 13.9293 12.127Z" fill="#FFD17F"/>
</g>
<defs>
<clipPath id="clip0_175_448">
<rect width="16.3636" height="18" fill="white"/>
</clipPath>
</defs>
</svg>
