<svg width="16" height="16" viewBox="0 0 16 16" fill="none" xmlns="http://www.w3.org/2000/svg">
<path d="M8 0.000488281C3.58168 0.000488281 0 3.58217 0 8.00049C0 12.4188 3.58168 16.0005 8 16.0005C12.4183 16.0005 16 12.4188 16 8.00049C16 3.58217 12.4183 0.000488281 8 0.000488281ZM4.70142 5.33391H11.2983C11.3819 5.33391 11.4606 5.35378 11.5316 5.38707L8.35923 7.61391C8.08335 7.89004 7.91252 7.89004 7.63664 7.61391L4.46555 5.38836C4.53755 5.35429 4.61677 5.33391 4.70142 5.33391ZM11.8519 10.2616C11.8519 10.5675 11.6041 10.8155 11.2986 10.8155H4.70142C4.39587 10.8155 4.14813 10.5675 4.14813 10.2616V6.05365C4.14813 6.02578 4.15226 5.9992 4.15639 5.97262L7.41316 8.2841C7.73729 8.60849 8.26297 8.60849 8.5871 8.2841L11.8439 5.97262C11.8477 5.9992 11.8521 6.02578 11.8521 6.05365L11.8519 10.2616Z" fill="#999999"/>
</svg>
