<svg width="16" height="16" viewBox="0 0 16 16" fill="none" xmlns="http://www.w3.org/2000/svg">
<path d="M8 0C3.58168 0 0 3.58168 0 8C0 12.4183 3.58168 16 8 16C12.4183 16 16 12.4183 16 8C16 3.58168 12.4183 0 8 0ZM4.70142 5.33342H11.2983C11.3819 5.33342 11.4606 5.35329 11.5316 5.38658L8.35923 7.61342C8.08335 7.88955 7.91252 7.88955 7.63664 7.61342L4.46555 5.38787C4.53755 5.35381 4.61677 5.33342 4.70142 5.33342ZM11.8519 10.2612C11.8519 10.567 11.6041 10.815 11.2986 10.815H4.70142C4.39587 10.815 4.14813 10.567 4.14813 10.2612V6.05316C4.14813 6.02529 4.15226 5.99871 4.15639 5.97213L7.41316 8.28361C7.73729 8.608 8.26297 8.608 8.5871 8.28361L11.8439 5.97213C11.8477 5.99871 11.8521 6.02529 11.8521 6.05316L11.8519 10.2612Z" fill="#FFA500"/>
</svg>
