<svg width="165" height="22" viewBox="0 0 165 22" fill="none" xmlns="http://www.w3.org/2000/svg">
<path d="M0.304928 21V0.981021H12.72V3.60782H3.34649V9.66329H11.8352V12.2624H3.34649V21H0.304928ZM16.121 21V0.981021H23.2549C27.9002 0.981021 30.1951 3.58017 30.1951 7.25769C30.1951 9.95362 28.9785 11.9998 26.5453 12.8984L30.9694 21H27.513L23.4484 13.4514H23.2549H19.1626V21H16.121ZM19.1626 10.8246H22.9507C25.9093 10.8246 27.1259 9.52503 27.1259 7.25769C27.1259 4.99035 25.9093 3.58017 22.9507 3.58017H19.1626V10.8246ZM50.9607 10.9905C50.9607 17.3778 47.1173 21.2765 41.9466 21.2765C36.7207 21.2765 32.9049 17.3778 32.9049 10.9905C32.9049 4.57559 36.7207 0.704515 41.9466 0.704515C47.1173 0.704515 50.9607 4.57559 50.9607 10.9905ZM47.9468 10.9905C47.9468 6.12402 45.3753 3.49722 41.9466 3.49722C38.4903 3.49722 35.9188 6.12402 35.9188 10.9905C35.9188 15.857 38.4903 18.4838 41.9466 18.4838C45.3753 18.4838 47.9468 15.857 47.9468 10.9905ZM54.3894 0.981021H58.0945L64.4265 16.493H64.6753L71.0073 0.981021H74.7125V21H71.8092V6.53878H71.6156L65.7537 20.9723H63.3481L57.4586 6.51113H57.2927V21H54.3894V0.981021ZM80.4914 21.1936C79.4131 21.1936 78.5006 20.3087 78.5283 19.2304C78.5006 18.152 79.4131 17.2672 80.4914 17.2672C81.5422 17.2672 82.4546 18.152 82.4546 19.2304C82.4546 20.3087 81.5422 21.1936 80.4914 21.1936ZM123.634 0.981021V21H120.841L110.694 6.37287H110.528V21H107.486V0.981021H110.306L120.454 15.6358H120.648V0.981021H123.634ZM145.118 10.9905C145.118 17.3778 141.275 21.2765 136.104 21.2765C130.878 21.2765 127.063 17.3778 127.063 10.9905C127.063 4.57559 130.878 0.704515 136.104 0.704515C141.275 0.704515 145.118 4.57559 145.118 10.9905ZM142.105 10.9905C142.105 6.12402 139.533 3.49722 136.104 3.49722C132.648 3.49722 130.077 6.12402 130.077 10.9905C130.077 15.857 132.648 18.4838 136.104 18.4838C139.533 18.4838 142.105 15.857 142.105 10.9905ZM164.695 0.981021V21H161.902L151.755 6.37287H151.589V21H148.547V0.981021H151.368L161.515 15.6358H161.709V0.981021H164.695Z" fill="black"/>
<path d="M85.4132 15.3524C85.4132 10.8566 89.0545 9.37036 92.9186 9.14743C94.3677 9.05454 97.08 8.9245 97.9346 8.88734V7.25251C97.8974 5.58051 96.7456 4.57732 94.7021 4.57732C92.8443 4.57732 91.6553 5.43189 91.3581 6.80664H86.1192C86.4536 3.31403 89.5003 0.564536 94.8507 0.564536C99.235 0.564536 103.396 2.53377 103.396 7.40113V21H98.1947V18.2133H98.0461C97.0429 20.0711 95.148 21.3716 92.1384 21.3716C88.2742 21.3716 85.4132 19.3652 85.4132 15.3524ZM90.6893 15.2038C90.6893 16.7643 91.9526 17.5817 93.6989 17.5817C96.1883 17.5817 97.9718 15.9097 97.9346 13.7919V12.3056C97.0986 12.3428 94.7578 12.4728 93.8104 12.5657C91.9154 12.7515 90.6893 13.6432 90.6893 15.2038Z" fill="#FFA500"/>
</svg>
