<svg width="140" height="19" viewBox="0 0 140 19" fill="none" xmlns="http://www.w3.org/2000/svg">
<path d="M0.119629 18V1.03125H10.6431V3.25781H2.69775V8.39062H9.89307V10.5938H2.69775V18H0.119629ZM13.5259 18V1.03125H19.5728C23.5103 1.03125 25.4556 3.23438 25.4556 6.35156C25.4556 8.63672 24.4243 10.3711 22.3618 11.1328L26.1118 18H23.1821L19.7368 11.6016H19.5728H16.104V18H13.5259ZM16.104 9.375H19.3149C21.8228 9.375 22.854 8.27344 22.854 6.35156C22.854 4.42969 21.8228 3.23438 19.3149 3.23438H16.104V9.375ZM43.0571 9.51562C43.0571 14.9297 39.7993 18.2344 35.4165 18.2344C30.9868 18.2344 27.7524 14.9297 27.7524 9.51562C27.7524 4.07812 30.9868 0.796875 35.4165 0.796875C39.7993 0.796875 43.0571 4.07812 43.0571 9.51562ZM40.5024 9.51562C40.5024 5.39062 38.3228 3.16406 35.4165 3.16406C32.4868 3.16406 30.3071 5.39062 30.3071 9.51562C30.3071 13.6406 32.4868 15.8672 35.4165 15.8672C38.3228 15.8672 40.5024 13.6406 40.5024 9.51562ZM45.9634 1.03125H49.104L54.4712 14.1797H54.6821L60.0493 1.03125H63.1899V18H60.729V5.74219H60.5649L55.5962 17.9766H53.5571L48.5649 5.71875H48.4243V18H45.9634V1.03125ZM68.0884 18.1641C67.1743 18.1641 66.4009 17.4141 66.4243 16.5C66.4009 15.5859 67.1743 14.8359 68.0884 14.8359C68.979 14.8359 69.7524 15.5859 69.7524 16.5C69.7524 17.4141 68.979 18.1641 68.0884 18.1641ZM105.076 1.03125V18H102.708L94.1069 5.60156H93.9663V18H91.3882V1.03125H93.7788L102.38 13.4531H102.544V1.03125H105.076ZM123.287 9.51562C123.287 14.9297 120.029 18.2344 115.646 18.2344C111.216 18.2344 107.982 14.9297 107.982 9.51562C107.982 4.07812 111.216 0.796875 115.646 0.796875C120.029 0.796875 123.287 4.07812 123.287 9.51562ZM120.732 9.51562C120.732 5.39062 118.552 3.16406 115.646 3.16406C112.716 3.16406 110.537 5.39062 110.537 9.51562C110.537 13.6406 112.716 15.8672 115.646 15.8672C118.552 15.8672 120.732 13.6406 120.732 9.51562ZM139.88 1.03125V18H137.513L128.912 5.60156H128.771V18H126.193V1.03125H128.583L137.185 13.4531H137.349V1.03125H139.88Z" fill="black"/>
<path d="M72.2837 13.1016C72.2837 9.20215 75.4419 7.91309 78.7935 7.71973C80.0503 7.63916 82.4028 7.52637 83.144 7.49414V6.07617C83.1118 4.62598 82.1128 3.75586 80.3403 3.75586C78.729 3.75586 77.6978 4.49707 77.4399 5.68945H72.896C73.186 2.66016 75.8286 0.275391 80.4692 0.275391C84.272 0.275391 87.8813 1.9834 87.8813 6.20508V18H83.3696V15.583H83.2407C82.3706 17.1943 80.7271 18.3223 78.1167 18.3223C74.7651 18.3223 72.2837 16.582 72.2837 13.1016ZM76.8599 12.9727C76.8599 14.3262 77.9556 15.0352 79.4702 15.0352C81.6294 15.0352 83.1763 13.585 83.144 11.748V10.459C82.4189 10.4912 80.3887 10.604 79.5669 10.6846C77.9233 10.8457 76.8599 11.6191 76.8599 12.9727Z" fill="#FFA500"/>
</svg>
