<svg width="187" height="25" viewBox="0 0 187 25" fill="none" xmlns="http://www.w3.org/2000/svg">
<path d="M0.60498 24V1.375H14.6362V4.34375H4.04248V11.1875H13.6362V14.125H4.04248V24H0.60498ZM18.48 24V1.375H26.5425C31.7925 1.375 34.3862 4.3125 34.3862 8.46875C34.3862 11.5156 33.0112 13.8281 30.2612 14.8438L35.2612 24H31.355L26.7612 15.4688H26.5425H21.9175V24H18.48ZM21.9175 12.5H26.1987C29.5425 12.5 30.9175 11.0312 30.9175 8.46875C30.9175 5.90625 29.5425 4.3125 26.1987 4.3125H21.9175V12.5ZM57.855 12.6875C57.855 19.9062 53.5112 24.3125 47.6675 24.3125C41.7612 24.3125 37.4487 19.9062 37.4487 12.6875C37.4487 5.4375 41.7612 1.0625 47.6675 1.0625C53.5112 1.0625 57.855 5.4375 57.855 12.6875ZM54.4487 12.6875C54.4487 7.1875 51.5425 4.21875 47.6675 4.21875C43.7612 4.21875 40.855 7.1875 40.855 12.6875C40.855 18.1875 43.7612 21.1562 47.6675 21.1562C51.5425 21.1562 54.4487 18.1875 54.4487 12.6875ZM61.73 1.375H65.9175L73.0737 18.9062H73.355L80.5112 1.375H84.6987V24H81.4175V7.65625H81.1987L74.5737 23.9688H71.855L65.1987 7.625H65.0112V24H61.73V1.375ZM91.23 24.2188C90.0112 24.2188 88.98 23.2188 89.0112 22C88.98 20.7812 90.0112 19.7812 91.23 19.7812C92.4175 19.7812 93.4487 20.7812 93.4487 22C93.4487 23.2188 92.4175 24.2188 91.23 24.2188ZM139.989 1.375V24H136.833L125.364 7.46875H125.176V24H121.739V1.375H124.926L136.395 17.9375H136.614V1.375H139.989ZM164.27 12.6875C164.27 19.9062 159.926 24.3125 154.083 24.3125C148.176 24.3125 143.864 19.9062 143.864 12.6875C143.864 5.4375 148.176 1.0625 154.083 1.0625C159.926 1.0625 164.27 5.4375 164.27 12.6875ZM160.864 12.6875C160.864 7.1875 157.958 4.21875 154.083 4.21875C150.176 4.21875 147.27 7.1875 147.27 12.6875C147.27 18.1875 150.176 21.1562 154.083 21.1562C157.958 21.1562 160.864 18.1875 160.864 12.6875ZM186.395 1.375V24H183.239L171.77 7.46875H171.583V24H168.145V1.375H171.333L182.801 17.9375H183.02V1.375H186.395Z" fill="black"/>
<path d="M96.7925 17.6172C96.7925 12.5361 100.908 10.8564 105.275 10.6045C106.913 10.4995 109.978 10.3525 110.944 10.3105V8.46289C110.902 6.57324 109.6 5.43945 107.291 5.43945C105.191 5.43945 103.847 6.40527 103.511 7.95898H97.5903C97.9683 4.01172 101.412 0.904297 107.458 0.904297C112.414 0.904297 117.117 3.12988 117.117 8.63086V24H111.238V20.8506H111.07C109.936 22.9502 107.794 24.4199 104.393 24.4199C100.026 24.4199 96.7925 22.1523 96.7925 17.6172ZM102.755 17.4492C102.755 19.2129 104.183 20.1367 106.157 20.1367C108.97 20.1367 110.986 18.2471 110.944 15.8535V14.1738C109.999 14.2158 107.354 14.3628 106.283 14.4678C104.141 14.6777 102.755 15.6855 102.755 17.4492Z" fill="#FFA500"/>
</svg>
