<svg width="133" height="147" viewBox="0 0 133 147" fill="none" xmlns="http://www.w3.org/2000/svg">
<g clip-path="url(#clip0_251_535)">
<path d="M132.59 0H0V146.864H132.59V0Z" fill="white"/>
<path d="M39.1303 30.8495C39.1303 30.8495 93.091 30.787 103.798 31.3849C127.125 32.692 132.59 47.425 132.59 47.425V0H0V146.864H36.1406C36.1406 146.864 34.7987 138.187 33.8184 130.17C32.6642 123.037 33.1509 99.6752 50.8736 87.932C68.5963 76.1887 89.0861 75.5004 107.734 75.5004C107.734 75.5004 107.734 55.5528 88.5508 55.5528C69.368 55.5528 39.2902 55.5528 39.2902 55.5528L39.1303 30.8495Z" fill="#FFA500"/>
<path d="M112.865 98.9452C112.865 98.9452 73.0113 92.0133 67.901 113.066C63.0549 133.014 81.5563 141.455 100.127 135.475C118.698 129.482 112.865 98.9452 112.865 98.9452Z" fill="#FFA500"/>
</g>
<defs>
<clipPath id="clip0_251_535">
<rect width="132.59" height="146.864" rx="30" fill="white"/>
</clipPath>
</defs>
</svg>
