<svg width="100" height="14" viewBox="0 0 100 14" fill="none" xmlns="http://www.w3.org/2000/svg">
<path d="M0.605957 13V0.980469H8.06006V2.55762H2.43213V6.19336H7.52881V7.75391H2.43213V13H0.605957ZM10.1021 13V0.980469H14.3853C17.1743 0.980469 18.5522 2.54102 18.5522 4.74902C18.5522 6.36768 17.8218 7.59619 16.3608 8.13574L19.0171 13H16.9419L14.5015 8.46777H14.3853H11.9282V13H10.1021ZM11.9282 6.89062H14.2026C15.979 6.89062 16.7095 6.11035 16.7095 4.74902C16.7095 3.3877 15.979 2.54102 14.2026 2.54102H11.9282V6.89062ZM31.02 6.99023C31.02 10.8252 28.7124 13.166 25.6079 13.166C22.4702 13.166 20.1792 10.8252 20.1792 6.99023C20.1792 3.13867 22.4702 0.814453 25.6079 0.814453C28.7124 0.814453 31.02 3.13867 31.02 6.99023ZM29.2104 6.99023C29.2104 4.06836 27.6665 2.49121 25.6079 2.49121C23.5327 2.49121 21.9888 4.06836 21.9888 6.99023C21.9888 9.91211 23.5327 11.4893 25.6079 11.4893C27.6665 11.4893 29.2104 9.91211 29.2104 6.99023ZM33.0786 0.980469H35.3032L39.105 10.2939H39.2544L43.0562 0.980469H45.2808V13H43.5376V4.31738H43.4214L39.9019 12.9834H38.4575L34.9214 4.30078H34.8218V13H33.0786V0.980469ZM48.7505 13.1162C48.103 13.1162 47.5552 12.585 47.5718 11.9375C47.5552 11.29 48.103 10.7588 48.7505 10.7588C49.3813 10.7588 49.9292 11.29 49.9292 11.9375C49.9292 12.585 49.3813 13.1162 48.7505 13.1162ZM74.7407 0.980469V13H73.064L66.9712 4.21777H66.8716V13H65.0454V0.980469H66.7388L72.8315 9.7793H72.9478V0.980469H74.7407ZM87.6401 6.99023C87.6401 10.8252 85.3325 13.166 82.228 13.166C79.0903 13.166 76.7993 10.8252 76.7993 6.99023C76.7993 3.13867 79.0903 0.814453 82.228 0.814453C85.3325 0.814453 87.6401 3.13867 87.6401 6.99023ZM85.8306 6.99023C85.8306 4.06836 84.2866 2.49121 82.228 2.49121C80.1528 2.49121 78.6089 4.06836 78.6089 6.99023C78.6089 9.91211 80.1528 11.4893 82.228 11.4893C84.2866 11.4893 85.8306 9.91211 85.8306 6.99023ZM99.394 0.980469V13H97.7173L91.6245 4.21777H91.5249V13H89.6987V0.980469H91.3921L97.4849 9.7793H97.6011V0.980469H99.394Z" fill="black"/>
<path d="M51.7104 9.58594C51.7104 6.86816 53.9116 5.96973 56.2476 5.83496C57.1235 5.77881 58.7632 5.7002 59.2798 5.67773V4.68945C59.2573 3.67871 58.561 3.07227 57.3257 3.07227C56.2026 3.07227 55.4839 3.58887 55.3042 4.41992H52.1372C52.3394 2.30859 54.1812 0.646484 57.4155 0.646484C60.0659 0.646484 62.5815 1.83691 62.5815 4.7793V13H59.437V11.3154H59.3472C58.7407 12.4385 57.5952 13.2246 55.7759 13.2246C53.4399 13.2246 51.7104 12.0117 51.7104 9.58594ZM54.8999 9.49609C54.8999 10.4395 55.6636 10.9336 56.7192 10.9336C58.2241 10.9336 59.3022 9.92285 59.2798 8.64258V7.74414C58.7744 7.7666 57.3594 7.84521 56.7866 7.90137C55.6411 8.01367 54.8999 8.55273 54.8999 9.49609Z" fill="#FFA500"/>
</svg>
