<svg width="191" height="212" viewBox="0 0 191 212" fill="none" xmlns="http://www.w3.org/2000/svg">
<g clip-path="url(#clip0_174_12172)">
<path d="M190.7 0H0V211.23H190.7V0Z" fill="white"/>
<path d="M56.28 44.37C56.28 44.37 133.89 44.28 149.29 45.14C182.84 47.02 190.7 68.21 190.7 68.21V0H0V211.23H51.98C51.98 211.23 50.05 198.75 48.64 187.22C46.98 176.96 47.68 143.36 73.17 126.47C98.66 109.58 128.13 108.59 154.95 108.59C154.95 108.59 154.95 79.9 127.36 79.9C99.77 79.9 56.51 79.9 56.51 79.9L56.28 44.37Z" fill="#FFA500"/>
<path d="M162.33 142.31C162.33 142.31 105.01 132.34 97.66 162.62C90.69 191.31 117.3 203.45 144.01 194.85C170.72 186.23 162.33 142.31 162.33 142.31Z" fill="#FFA500"/>
</g>
<defs>
<clipPath id="clip0_174_12172">
<rect width="190.7" height="211.23" fill="white"/>
</clipPath>
</defs>
</svg>
